<?xml version="1.0" encoding="UTF-8" standalone="no"?>
<svg
   xmlns:dc="http://purl.org/dc/elements/1.1/"
   xmlns:cc="http://creativecommons.org/ns#"
   xmlns:rdf="http://www.w3.org/1999/02/22-rdf-syntax-ns#"
   xmlns:svg="http://www.w3.org/2000/svg"
   xmlns="http://www.w3.org/2000/svg"
   viewBox="0 0 168 14"
   height="14"
   width="168"
   version="1.1"
   id="svg2">
  <metadata
     id="metadata8">
    <rdf:RDF>
      <cc:Work
         rdf:about="">
        <dc:format>image/svg+xml</dc:format>
        <dc:type
           rdf:resource="http://purl.org/dc/dcmitype/StillImage" />
        <dc:title></dc:title>
      </cc:Work>
    </rdf:RDF>
  </metadata>
  <defs
     id="defs6" />
  <path
     id="path4207-4-2"
     d="m 3,1.300391 0,0.699218 1,0 0,-0.699218 -1,0 z m 5,0 0,0.699218 3,0 0,-0.699218 -3,0 z m 30,0 0,0.699218 1,0 0,-0.699218 -1,0 z m 24,0 0,0.699218 6,0 0,-0.699218 -6,0 z m 21,0 0,0.699218 1,0 0,-0.699218 -1,0 z m 42,0 0,0.699218 2,0 0,-0.699218 -2,0 z m 5,0 0,0.699218 2,0 0,-0.699218 -2,0 z m 22,0 0,0.699218 3,0 0,-0.699218 -3,0 z m 10,0 0,0.699218 5,0 0,-0.699218 -5,0 z m -160,1 0,0.699218 3,0 0,-0.699218 -3,0 z m 7,0 0,0.699218 2,0 0,-0.699218 -2,0 z m 28,0 0,0.699218 2,0 0,-0.699218 -2,0 z m 26,0 0,0.699218 2,0 0,-0.699218 -2,0 z m 4,0 0,0.699218 2,0 0,-0.699218 -2,0 z m 15,0 0,0.699218 2,0 0,-0.699218 -2,0 z m 43,0 0,0.699218 2,0 0,-0.699218 -2,0 z m 5,0 0,0.699218 2,0 0,-0.699218 -2,0 z m 23,0 0,0.699218 2,0 0,-0.699218 -2,0 z m 8,0 0,0.699218 2,0 0,-0.699218 -2,0 z m 5,0 0,0.699218 2,0 0,-0.699218 -2,0 z m -165,1 0,0.699218 2,0 0,-0.699218 -2,0 z m 3,0 0,0.699218 2,0 0,-0.699218 -2,0 z m 5,0 0,0.699218 2,0 0,-0.699218 -2,0 z m 28,0 0,0.699218 2,0 0,-0.699218 -2,0 z m 26,0 0,0.699218 2,0 0,-0.699218 -2,0 z m 4,0 0,0.699218 2,0 0,-0.699218 -2,0 z m 15,0 0,0.699218 2,0 0,-0.699218 -2,0 z m 43,0 0,0.699218 2,0 0,-0.699218 -2,0 z m 5,0 0,0.699218 2,0 0,-0.699218 -2,0 z m 23,0 0,0.699218 2,0 0,-0.699218 -2,0 z m 8,0 0,0.699218 2,0 0,-0.699218 -2,0 z m 5,0 0,0.699218 2,0 0,-0.699218 -2,0 z m -166,1 0,0.699218 2,0 0,-0.699218 -2,0 z m 5,0 0,0.699218 2,0 0,-0.699218 -2,0 z m 4,0 0,0.699218 4,0 0,-0.699218 -4,0 z m 9,0 0,0.699218 5,0 0,-0.699218 -5,0 z m 8,0 0,0.699218 2,0 0,-0.699218 -2,0 z m 3,0 0,0.699218 3,0 0,-0.699218 -3,0 z m 6,0 0,0.699218 6,0 0,-0.699218 -6,0 z m 28,0 0,0.699218 2,0 0,-0.699218 -2,0 z m 4,0 0,0.699218 2,0 0,-0.699218 -2,0 z m 5,0 0,0.699218 5,0 0,-0.699218 -5,0 z m 8,0 0,0.699218 6,0 0,-0.699218 -6,0 z m 9,0 0,0.699218 2,0 0,-0.699218 -2,0 z m 3,0 0,0.699218 3,0 0,-0.699218 -3,0 z m 6,0 0,0.699218 1.999995,0 0,-0.699218 -1.999995,0 z m 5,0 0,0.699218 2,0 0,-0.699218 -2,0 z m 22,0 0,0.699218 2,0 0,-0.699218 -2,0 z m 5,0 0,0.699218 2,0 0,-0.699218 -2,0 z m 5,0 0,0.699218 4,0 0,-0.699218 -4,0 z m 9,0 0,0.699218 5,0 0,-0.699218 -5,0 z m 9,0 0,0.699218 2,0 0,-0.699218 -2,0 z m 4,0 0,0.699218 2,0 0,-0.699218 -2,0 z m 8,0 0,0.699218 2,0 0,-0.699218 -2,0 z m -165,1 0,0.699218 2,0 0,-0.699218 -2,0 z m 5,0 0,0.699218 2,0 0,-0.699218 -2,0 z m 4,0 0,0.699218 2,0 0,-0.699218 -2,0 z m 3,0 0,0.699218 2,0 0,-0.699218 -2,0 z m 5,0 0,0.699218 2,0 0,-0.699218 -2,0 z m 5,0 0,0.699218 2,0 0,-0.699218 -2,0 z m 5,0 0,0.699218 3,0 0,-0.699218 -3,0 z m 4,0 0,0.699218 2,0 0,-0.699218 -2,0 z m 6,0 0,0.699218 2,0 0,-0.699218 -2,0 z m 26,0 0,0.699218 5,0 0,-0.699218 -5,0 z m 8,0 0,0.699218 2,0 0,-0.699218 -2,0 z m 5,0 0,0.699218 2,0 0,-0.699218 -2,0 z m 6,0 0,0.699218 2,0 0,-0.699218 -2,0 z m 8,0 0,0.699218 3,0 0,-0.699218 -3,0 z m 4,0 0,0.699218 2,0 0,-0.699218 -2,0 z m 4,0 0,0.699218 1.999995,0 0,-0.699218 -1.999995,0 z m 5,0 0,0.699218 2,0 0,-0.699218 -2,0 z m 22,0 0,0.699218 7,0 0,-0.699218 -7,0 z m 13,0 0,0.699218 2,0 0,-0.699218 -2,0 z m 5,0 0,0.699218 2,0 0,-0.699218 -2,0 z m 5,0 0,0.699218 2,0 0,-0.699218 -2,0 z m 5,0 0,0.699218 2,0 0,-0.699218 -2,0 z m 3,0 0,0.699218 2,0 0,-0.699218 -2,0 z m 8,0 0,0.699218 2,0 0,-0.699218 -2,0 z m -164,1 0,0.699218 7,0 0,-0.699218 -7,0 z m 9,0 0,0.699218 2,0 0,-0.699218 -2,0 z m 4,0 0,0.699218 2,0 0,-0.699218 -2,0 z m 4,0 0,0.699218 2,0 0,-0.699218 -2,0 z m 5,0 0,0.699218 2,0 0,-0.699218 -2,0 z m 5,0 0,0.699218 2,0 0,-0.699218 -2,0 z m 4,0 0,0.699218 2,0 0,-0.699218 -2,0 z m 6,0 0,0.699218 2,0 0,-0.699218 -2,0 z m 26,0 0,0.699218 2,0 0,-0.699218 -2,0 z m 3,0 0,0.699218 2,0 0,-0.699218 -2,0 z m 5,0 0,0.699218 7,0 0,-0.699218 -7,0 z m 11,0 0,0.699218 2,0 0,-0.699218 -2,0 z m 8,0 0,0.699218 2,0 0,-0.699218 -2,0 z m 4,0 0,0.699218 2,0 0,-0.699218 -2,0 z m 4,0 0,0.699218 1.999995,0 0,-0.699218 -1.999995,0 z m 5,0 0,0.699218 2,0 0,-0.699218 -2,0 z m 22,0 0,0.699218 2,0 0,-0.699218 -2,0 z m 5,0 0,0.699218 2,0 0,-0.699218 -2,0 z m 5,0 0,0.699218 5,0 0,-0.699218 -5,0 z m 8,0 0,0.699218 2,0 0,-0.699218 -2,0 z m 10,0 0,0.699218 4,0 0,-0.699218 -4,0 z m 11,0 0,0.699218 2,0 0,-0.699218 -2,0 z m -164,1 0,0.699218 2,0 0,-0.699218 -2,0 z m 5,0 0,0.699218 2,0 0,-0.699218 -2,0 z m 4,0 0,0.699218 2,0 0,-0.699218 -2,0 z m 4,0 0,0.699218 2,0 0,-0.699218 -2,0 z m 4,0 0,0.699218 2,0 0,-0.699218 -2,0 z m 5,0 0,0.699218 2,0 0,-0.699218 -2,0 z m 5,0 0,0.699218 2,0 0,-0.699218 -2,0 z m 10,0 0,0.699218 2,0 0,-0.699218 -2,0 z m 26,0 0,0.699218 2,0 0,-0.699218 -2,0 z m 4,0 0,0.699218 2,0 0,-0.699218 -2,0 z m 4,0 0,0.699218 2,0 0,-0.699218 -2,0 z m 11,0 0,0.699218 2,0 0,-0.699218 -2,0 z m 8,0 0,0.699218 2,0 0,-0.699218 -2,0 z m 8,0 0,0.699218 1.999995,0 0,-0.699218 -1.999995,0 z m 5,0 0,0.699218 2,0 0,-0.699218 -2,0 z m 22,0 0,0.699218 2,0 0,-0.699218 -2,0 z m 5,0 0,0.699218 2,0 0,-0.699218 -2,0 z m 4,0 0,0.699218 2,0 0,-0.699218 -2,0 z m 4,0 0,0.699218 2,0 0,-0.699218 -2,0 z m 5,0 0,0.699218 2,0 0,-0.699218 -2,0 z m 10,0 0,0.699218 4,0 0,-0.699218 -4,0 z m 11,0 0,0.699218 2,0 0,-0.699218 -2,0 z m -164,1 0,0.699218 2,0 0,-0.699218 -2,0 z m 5,0 0,0.699218 2,0 0,-0.699218 -2,0 z m 4,0 0,0.699218 2,0 0,-0.699218 -2,0 z m 4,0 0,0.699218 2,0 0,-0.699218 -2,0 z m 4,0 0,0.699218 2,0 0,-0.699218 -2,0 z m 5,0 0,0.699218 2,0 0,-0.699218 -2,0 z m 5,0 0,0.699218 2,0 0,-0.699218 -2,0 z m 10,0 0,0.699218 2,0 0,-0.699218 -2,0 z m 10,0 0,0.699218 2,0 0,-0.699218 -2,0 z m 16,0 0,0.699218 2,0 0,-0.699218 -2,0 z m 4,0 0,0.699218 2,0 0,-0.699218 -2,0 z m 4,0 0,0.699218 2,0 0,-0.699218 -2,0 z m 11,0 0,0.699218 2,0 0,-0.699218 -2,0 z m 8,0 0,0.699218 2,0 0,-0.699218 -2,0 z m 8,0 0,0.699218 1.999995,0 0,-0.699218 -1.999995,0 z m 5,0 0,0.699218 2,0 0,-0.699218 -2,0 z m 7,0 0,0.699218 2,0 0,-0.699218 -2,0 z m 15,0 0,0.699218 2,0 0,-0.699218 -2,0 z m 5,0 0,0.699218 2,0 0,-0.699218 -2,0 z m 4,0 0,0.699218 2,0 0,-0.699218 -2,0 z m 4,0 0,0.699218 2,0 0,-0.699218 -2,0 z m 5,0 0,0.699218 2,0 0,-0.699218 -2,0 z m 10,0 0,0.699218 2,0 0,-0.699218 -2,0 z m 3,0 0,0.699218 2,0 0,-0.699218 -2,0 z m -156,1 0,0.699218 2,0 0,-0.699218 -2,0 z m 5,0 0,0.699218 2,0 0,-0.699218 -2,0 z m 4,0 0,0.699218 2,0 0,-0.699218 -2,0 z m 4,0 0,0.699218 2,0 0,-0.699218 -2,0 z m 4,0 0,0.699218 2,0 0,-0.699218 -2,0 z m 5,0 0,0.699218 2,0 0,-0.699218 -2,0 z m 5,0 0,0.699218 2,0 0,-0.699218 -2,0 z m 10,0 0,0.699218 2,0 0,-0.699218 -2,0 z m 3,0 0,0.699218 2,0 0,-0.699218 -2,0 z m 7,0 0,0.699218 2,0 0,-0.699218 -2,0 z m 16,0 0,0.699218 2,0 0,-0.699218 -2,0 z m 4,0 0,0.699218 2,0 0,-0.699218 -2,0 z m 4,0 0,0.699218 2,0 0,-0.699218 -2,0 z m 5,0 0,0.699218 2,0 0,-0.699218 -2,0 z m 6,0 0,0.699218 2,0 0,-0.699218 -2,0 z m 3,0 0,0.699218 2,0 0,-0.699218 -2,0 z m 5,0 0,0.699218 2,0 0,-0.699218 -2,0 z m 8,0 0,0.699218 1.999995,0 0,-0.699218 -1.999995,0 z m 5,0 0,0.699218 2,0 0,-0.699218 -2,0 z m 7,0 0,0.699218 2,0 0,-0.699218 -2,0 z m 15,0 0,0.699218 2,0 0,-0.699218 -2,0 z m 5,0 0,0.699218 2,0 0,-0.699218 -2,0 z m 4,0 0,0.699218 2,0 0,-0.699218 -2,0 z m 4,0 0,0.699218 2,0 0,-0.699218 -2,0 z m 5,0 0,0.699218 2,0 0,-0.699218 -2,0 z m 5,0 0,0.699218 2,0 0,-0.699218 -2,0 z m 5,0 0,0.699218 2,0 0,-0.699218 -2,0 z m 4,0 0,0.699218 2,0 0,-0.699218 -2,0 z m 7,0 0,0.699218 2,0 0,-0.699218 -2,0 z m -164,1 0,0.699218 2,0 0,-0.699218 -2,0 z m 5,0 0,0.699218 2,0 0,-0.699218 -2,0 z m 4,0 0,0.699218 5,0 0,-0.699218 -5,0 z m 9,0 0,0.699218 5,0 0,-0.699218 -5,0 z m 8,0 0,0.699218 4,0 0,-0.699218 -4,0 z m 12,0 0,0.699218 3,0 0,-0.699218 -3,0 z m 9,0 0,0.699218 2,0 0,-0.699218 -2,0 z m 15,0 0,0.699218 3,0 0,-0.699218 -3,0 z m 5,0 0,0.699218 2,0 0,-0.699218 -2,0 z m 5,0 0,0.699218 5,0 0,-0.699218 -5,0 z m 11,0 0,0.699218 3,0 0,-0.699218 -3,0 z m 6,0 0,0.699218 4,0 0,-0.699218 -4,0 z m 10,0 0,0.699218 6,0 0,-0.699218 -6,0 z m 11,0 0,0.699218 2,0 0,-0.699218 -2,0 z m 15,0 0,0.699218 2,0 0,-0.699218 -2,0 z m 5,0 0,0.699218 2,0 0,-0.699218 -2,0 z m 5,0 0,0.699218 3,0 0,-0.699218 -3,0 z m 4,0 0,0.699218 2,0 0,-0.699218 -2,0 z m 5,0 0,0.699218 5,0 0,-0.699218 -5,0 z m 8,0 0,0.699218 3,0 0,-0.699218 -3,0 z m 5,0 0,0.699218 2,0 0,-0.699218 -2,0 z m 7,0 0,0.699218 2,0 0,-0.699218 -2,0 z m -118,1 0,0.699218 2,0 0,-0.699218 -2,0 z m 57,0 0,0.699218 2,0 0,-0.699218 -2,0 z m 6,0 0,0.699218 2,0 0,-0.699218 -2,0 z m -7,1 0,0.699218 2,0 0,-0.699218 -2,0 z m -4,1 0,0.699218 5,0 0,-0.699218 -5,0 z"
     style="color:#000000;display:inline;overflow:visible;visibility:visible;opacity:1;fill:#ffffff;fill-opacity:1;fill-rule:evenodd;stroke:none;stroke-width:1.0629921;stroke-linecap:butt;stroke-linejoin:miter;stroke-miterlimit:4;stroke-dasharray:none;stroke-dashoffset:0;stroke-opacity:1;marker:none;enable-background:accumulate" />
</svg>
